<?xml version='1.0' encoding='UTF-8'?>
<svg x="0px" y="0px" viewBox="5.3338 5.3338 32 32" version="1.1" xmlns="http://www.w3.org/2000/svg" xmlns:xlink="http://www.w3.org/1999/xlink" xml:space="preserve" id="Layer_1" style="enable-background:new 0 0 32 32">
  <g transform="matrix(1.1428, 0, 0, 1.1428, 0, 0)">
    <g transform="matrix(0.875, 0, 0, 0.875, 0, 0)">
      <g transform="matrix(1.1428, 0, 0, 1.1428, 0, 0)">
        <g transform="matrix(0.8751, 0, 0, 0.8751, 0, 0)">
          <g transform="matrix(1.1428, 0, 0, 1.1428, 0, 0)">
            <g transform="matrix(1.1667, 0, 0, 1.1667, 0, 0)">
              <style type="text/css">
	.Blue{fill:#1177D7;}
	.Yellow{fill:#FFB115;}
	.Black{fill:#727272;}
	.Green{fill:#039C23;}
	.Red{fill:#D11C1C;}
	.st0{opacity:0.75;}
	.st1{opacity:0.5;}
</style>
              <g id="DeleteCircled">
                <path d="M16, 4C9.4, 4 4, 9.4 4, 16C4, 22.6 9.4, 28 16, 28C22.6, 28 28, 22.6 28, 16C28, 9.4 22.6, 4 16, 4zM23.1, 20.2L20.3, 23L16, 18.8L11.8, 23L9, 20.2L13.2, 16L9, 11.8L11.8, 9L16, 13.2L20.2, 9L23, 11.8L18.8, 16L23.1, 20.2z" class="Red" />
              </g>
            </g>
          </g>
        </g>
      </g>
    </g>
  </g>
</svg>