<?xml version="1.0" encoding="UTF-8" standalone="no"?>
<!-- Generator: Adobe Illustrator 16.0.0, SVG Export Plug-In . SVG Version: 6.00 Build 0)  -->

<svg
   xmlns:dc="http://purl.org/dc/elements/1.1/"
   xmlns:cc="http://creativecommons.org/ns#"
   xmlns:rdf="http://www.w3.org/1999/02/22-rdf-syntax-ns#"
   xmlns:svg="http://www.w3.org/2000/svg"
   xmlns="http://www.w3.org/2000/svg"
   xmlns:sodipodi="http://sodipodi.sourceforge.net/DTD/sodipodi-0.dtd"
   xmlns:inkscape="http://www.inkscape.org/namespaces/inkscape"
   version="1.0"
   id="Layer_2"
   x="0px"
   y="0px"
   width="300"
   height="180"
   viewBox="0 0 300 180"
   enable-background="new 0 0 720 432"
   xml:space="preserve"
   sodipodi:docname="Commonwealth_Flag,_2013.svg"
   inkscape:version="0.92.3 (2405546, 2018-03-11)"><metadata
   id="metadata129"><rdf:RDF><cc:Work
       rdf:about=""><dc:format>image/svg+xml</dc:format><dc:type
         rdf:resource="http://purl.org/dc/dcmitype/StillImage" /><dc:title></dc:title></cc:Work></rdf:RDF></metadata><defs
   id="defs127" /><sodipodi:namedview
   pagecolor="#ffffff"
   bordercolor="#666666"
   borderopacity="1"
   objecttolerance="10"
   gridtolerance="10"
   guidetolerance="10"
   inkscape:pageopacity="0"
   inkscape:pageshadow="2"
   inkscape:window-width="1440"
   inkscape:window-height="837"
   id="namedview125"
   showgrid="false"
   inkscape:zoom="0.98888889"
   inkscape:cx="324.50934"
   inkscape:cy="198.05654"
   inkscape:window-x="-8"
   inkscape:window-y="-8"
   inkscape:window-maximized="1"
   inkscape:current-layer="Layer_2" />
<rect
   width="300"
   height="180"
   id="rect2"
   x="0"
   y="0"
   style="fill:#004990;stroke-width:0.41666666" />
<g
   id="g122"
   transform="scale(0.41666667)">
	<path
   d="m 378.6,299.809 c -0.057,-0.289 -0.402,-0.461 -0.691,-0.393 -0.451,0.15 -0.971,0.289 -1.408,0.393 h -0.045 c -0.289,0.08 -0.473,0.369 -0.426,0.635 l 7.002,41.873 14.049,40.375 c 0.08,0.299 0.369,0.461 0.668,0.381 l 1.406,-0.334 c 0.266,-0.094 0.5,-0.383 0.428,-0.703 l -7.068,-42.234 z"
   id="path4"
   inkscape:connector-curvature="0"
   style="fill:#ffd51d" />
	<path
   d="m 332.746,132.221 c 0.104,0.254 0.404,0.449 0.681,0.367 l 1.419,-0.367 c 0.277,-0.061 0.461,-0.324 0.393,-0.624 L 328.213,89.296 314.3,49.324 c -0.068,-0.311 -0.357,-0.449 -0.715,-0.356 -0.45,0.114 -0.946,0.253 -1.408,0.356 h -0.057 c -0.254,0.059 -0.46,0.369 -0.427,0.658 l 7.015,41.828 z"
   id="path6"
   inkscape:connector-curvature="0"
   style="fill:#ffd51d" />
	<path
   d="m 365.23,302.369 c -0.045,-0.299 -0.344,-0.541 -0.656,-0.494 -0.463,0.078 -0.992,0.148 -1.49,0.148 -0.287,0.059 -0.531,0.289 -0.531,0.611 l 0.395,42.393 7.533,42.094 c 0.045,0.299 0.32,0.508 0.621,0.449 l 1.455,-0.113 c 0.266,-0.012 0.492,-0.279 0.539,-0.59 l -0.424,-42.832 z"
   id="path8"
   inkscape:connector-curvature="0"
   style="fill:#ffd51d" />
	<path
   d="m 346.14,129.637 c 0.08,0.322 0.31,0.506 0.646,0.494 l 1.418,-0.127 c 0.3,-0.045 0.507,-0.264 0.507,-0.611 l -0.403,-42.82 -7.405,-41.678 c -0.059,-0.299 -0.335,-0.508 -0.669,-0.484 -0.473,0.081 -0.993,0.115 -1.477,0.15 0.046,0 0,0 0,0 -0.3,0.035 -0.519,0.289 -0.519,0.555 l 0.345,42.449 z"
   id="path10"
   inkscape:connector-curvature="0"
   style="fill:#ffd51d" />
	<path
   d="m 351.041,302.207 c -0.506,0 -1.002,-0.033 -1.475,-0.068 -0.335,-0.035 -0.577,0.174 -0.636,0.484 l -6.309,41.967 0.899,42.717 c 0,0.346 0.242,0.6 0.53,0.6 l 1.43,0.059 c 0.323,0.045 0.6,-0.164 0.646,-0.475 l 6.322,-42.359 -0.854,-42.334 c 0.002,-0.302 -0.24,-0.579 -0.553,-0.591"
   id="path12"
   inkscape:connector-curvature="0"
   style="fill:#ffd51d" />
	<path
   d="m 360.305,129.797 1.443,0.104 c 0.297,0.012 0.553,-0.197 0.609,-0.508 l 6.344,-42.369 -0.875,-42.312 c 0,-0.334 -0.23,-0.6 -0.578,-0.6 -0.473,-0.012 -0.967,-0.023 -1.453,-0.082 -0.334,0 -0.564,0.162 -0.596,0.496 l -6.313,41.943 0.877,42.763 c 0,0.323 0.253,0.531 0.542,0.565"
   id="path14"
   inkscape:connector-curvature="0"
   style="fill:#ffd51d" />
	<path
   d="m 336.161,300.107 h -0.012 c -0.3,-0.059 -0.6,0.105 -0.716,0.406 l -12.735,40.453 -5.803,42.369 c -0.057,0.301 0.104,0.578 0.404,0.613 l 1.419,0.344 c 0.3,0.059 0.588,-0.09 0.703,-0.379 l 12.863,-40.916 5.79,-41.875 c 0.058,-0.357 -0.127,-0.609 -0.473,-0.668 -0.483,-0.093 -0.978,-0.196 -1.44,-0.347"
   id="path16"
   inkscape:connector-curvature="0"
   style="fill:#ffd51d" />
	<path
   d="m 375.15,131.908 c 0.291,0.08 0.588,-0.104 0.68,-0.395 l 12.875,-40.881 5.791,-41.908 c 0.01,-0.322 -0.162,-0.623 -0.484,-0.669 -0.471,-0.08 -0.957,-0.196 -1.453,-0.323 v -0.01 c -0.266,-0.059 -0.588,0.102 -0.668,0.379 l -12.771,40.468 -5.836,42.382 c -0.035,0.299 0.146,0.562 0.449,0.646 z"
   id="path18"
   inkscape:connector-curvature="0"
   style="fill:#ffd51d" />
	<path
   d="m 324.625,296.566 c -0.461,-0.127 -0.947,-0.346 -1.396,-0.508 v -0.033 c -0.3,-0.094 -0.611,0.033 -0.75,0.275 l -18.906,37.918 -12.413,40.963 c -0.104,0.301 0.034,0.6 0.346,0.715 l 1.362,0.531 c 0.254,0.104 0.564,0 0.738,-0.242 l 19.079,-38.379 12.264,-40.523 c 0.126,-0.267 -0.058,-0.613 -0.324,-0.717"
   id="path20"
   inkscape:connector-curvature="0"
   style="fill:#ffd51d" />
	<path
   d="m 386.697,135.461 1.348,0.508 c 0.301,0.15 0.613,0.033 0.764,-0.254 L 407.903,97.36 420.176,56.893 c 0.113,-0.324 -0.057,-0.59 -0.359,-0.739 -0.428,-0.149 -0.936,-0.334 -1.361,-0.53 l -0.02,-0.012 c -0.314,-0.092 -0.568,0 -0.73,0.288 l -18.941,37.918 -12.367,40.929 c -0.101,0.31 0.047,0.575 0.299,0.714"
   id="path22"
   inkscape:connector-curvature="0"
   style="fill:#ffd51d" />
	<path
   d="m 312.639,291.514 c 0.128,-0.287 0.013,-0.633 -0.254,-0.797 -0.403,-0.207 -0.864,-0.459 -1.257,-0.715 0,0 -0.034,0 -0.034,-0.035 -0.265,-0.172 -0.553,-0.068 -0.761,0.152 l -24.628,34.514 -18.653,38.508 c -0.116,0.299 -0.011,0.6 0.253,0.748 l 1.211,0.748 c 0.3,0.141 0.611,0.094 0.807,-0.135 l 24.86,-34.932 z"
   id="path24"
   inkscape:connector-curvature="0"
   style="fill:#ffd51d" />
	<path
   d="m 398.707,140.561 c -0.15,0.252 -0.014,0.6 0.242,0.714 l 1.234,0.738 c 0.242,0.162 0.574,0.139 0.771,-0.138 l 24.893,-34.896 18.434,-38.091 c 0.129,-0.275 0.025,-0.623 -0.25,-0.762 -0.438,-0.23 -0.855,-0.494 -1.295,-0.748 -0.252,-0.209 -0.553,-0.115 -0.748,0.148 l -24.617,34.516 z"
   id="path26"
   inkscape:connector-curvature="0"
   style="fill:#ffd51d" />
	<path
   d="m 301.37,283.844 c 0.161,-0.266 0.104,-0.604 -0.105,-0.82 -0.438,-0.254 -0.806,-0.586 -1.165,-0.91 v -0.047 c -0.242,-0.186 -0.577,-0.172 -0.796,0.068 l -29.761,30.225 -24.411,35.113 c -0.196,0.256 -0.115,0.588 0.093,0.762 l 1.119,0.934 c 0.231,0.186 0.588,0.186 0.808,-0.033 l 30.039,-30.559 z"
   id="path28"
   inkscape:connector-curvature="0"
   style="fill:#ffd51d" />
	<path
   d="m 410,148.207 c -0.197,0.288 -0.162,0.588 0.08,0.774 l 1.133,0.935 c 0.229,0.193 0.553,0.193 0.781,-0.035 l 30.039,-30.57 24.17,-34.732 c 0.195,-0.266 0.148,-0.602 -0.105,-0.818 -0.414,-0.277 -0.809,-0.601 -1.154,-0.947 v -0.012 c -0.24,-0.138 -0.564,-0.138 -0.773,0.07 l -29.748,30.223 z"
   id="path30"
   inkscape:connector-curvature="0"
   style="fill:#ffd51d" />
	<path
   d="m 291.415,274.498 c 0.207,-0.205 0.253,-0.564 0.034,-0.805 -0.345,-0.336 -0.703,-0.729 -0.992,-1.109 h -0.023 c -0.185,-0.219 -0.53,-0.252 -0.772,-0.08 l -34.122,25.17 -29.59,30.871 c -0.242,0.24 -0.242,0.553 -0.033,0.783 l 0.957,1.107 c 0.196,0.232 0.542,0.277 0.762,0.068 l 34.444,-25.48 z"
   id="path32"
   inkscape:connector-curvature="0"
   style="fill:#ffd51d" />
	<path
   d="m 419.922,157.539 c -0.219,0.221 -0.219,0.543 0,0.797 l 0.955,1.084 c 0.186,0.208 0.498,0.289 0.75,0.093 l 34.471,-25.493 29.322,-30.559 c 0.197,-0.207 0.197,-0.564 0,-0.795 -0.357,-0.323 -0.693,-0.705 -0.992,-1.072 -0.207,-0.255 -0.508,-0.301 -0.785,-0.15 l -34.111,25.238 z"
   id="path34"
   inkscape:connector-curvature="0"
   style="fill:#ffd51d" />
	<path
   d="m 283.04,263.736 c 0.277,-0.195 0.299,-0.506 0.162,-0.795 -0.3,-0.381 -0.565,-0.832 -0.762,-1.211 l -0.057,-0.059 c -0.15,-0.24 -0.473,-0.334 -0.75,-0.197 l -37.64,19.564 -34.076,25.816 c -0.255,0.209 -0.266,0.555 -0.15,0.809 l 0.785,1.188 c 0.149,0.277 0.507,0.381 0.75,0.242 L 249.3,289.31 Z"
   id="path36"
   inkscape:connector-curvature="0"
   style="fill:#ffd51d" />
	<path
   d="m 428.271,168.291 c -0.266,0.208 -0.299,0.541 -0.137,0.808 l 0.785,1.188 c 0.137,0.277 0.461,0.356 0.748,0.255 l 38.01,-19.819 33.729,-25.562 c 0.256,-0.174 0.299,-0.543 0.141,-0.797 -0.266,-0.402 -0.539,-0.819 -0.809,-1.234 v -0.033 c -0.148,-0.232 -0.484,-0.323 -0.727,-0.186 l -37.629,19.564 z"
   id="path38"
   inkscape:connector-curvature="0"
   style="fill:#ffd51d" />
	<path
   d="m 276.487,251.787 c 0.289,-0.15 0.392,-0.449 0.265,-0.773 -0.207,-0.393 -0.415,-0.902 -0.6,-1.34 l -0.012,-0.01 c -0.104,-0.275 -0.415,-0.393 -0.715,-0.312 l -40.202,13.426 -37.697,20.18 c -0.289,0.137 -0.393,0.482 -0.289,0.748 l 0.589,1.348 c 0.104,0.266 0.427,0.395 0.714,0.314 l 40.618,-13.613 z"
   id="path40"
   inkscape:connector-curvature="0"
   style="fill:#ffd51d" />
	<path
   d="m 271.862,238.947 c 0.288,-0.082 0.462,-0.369 0.369,-0.705 -0.126,-0.461 -0.266,-0.957 -0.369,-1.453 -0.07,-0.275 -0.357,-0.473 -0.659,-0.426 l -41.815,6.967 -40.41,14.061 c -0.3,0.105 -0.438,0.406 -0.369,0.67 l 0.369,1.441 c 0.07,0.289 0.346,0.463 0.658,0.406 l 42.254,-7.086 z"
   id="path42"
   inkscape:connector-curvature="0"
   style="fill:#ffd51d" />
	<path
   d="m 269.3,225.555 c 0.346,-0.033 0.542,-0.312 0.496,-0.623 -0.046,-0.496 -0.104,-0.994 -0.126,-1.477 v -0.025 c -0.023,-0.287 -0.289,-0.541 -0.624,-0.541 l -42.416,0.391 -42.059,7.547 c -0.311,0.068 -0.519,0.301 -0.485,0.633 l 0.104,1.422 c 0.045,0.264 0.323,0.527 0.611,0.527 l 42.844,-0.367 z"
   id="path44"
   inkscape:connector-curvature="0"
   style="fill:#ffd51d" />
	<path
   d="m 226.562,212.785 42.312,-0.844 c 0.323,0 0.565,-0.264 0.565,-0.564 0,-0.475 0.046,-1.005 0.081,-1.467 v -0.045 c 0.046,-0.288 -0.184,-0.555 -0.473,-0.6 l -41.943,-6.252 -42.762,0.842 c -0.289,0 -0.52,0.266 -0.554,0.555 l -0.091,1.395 c -0.012,0.357 0.195,0.623 0.46,0.646 z"
   id="path46"
   inkscape:connector-curvature="0"
   style="fill:#ffd51d" />
	<path
   d="m 228.66,192.631 41.921,5.779 c 0.3,0.059 0.599,-0.138 0.668,-0.461 0.082,-0.484 0.185,-0.992 0.289,-1.431 0,0 0.023,-0.022 0.023,-0.069 0.081,-0.253 -0.127,-0.564 -0.392,-0.635 l -40.49,-12.758 -42.325,-5.838 c -0.287,-0.068 -0.587,0.15 -0.621,0.439 l -0.334,1.407 c -0.07,0.3 0.104,0.589 0.369,0.657 z"
   id="path48"
   inkscape:connector-curvature="0"
   style="fill:#ffd51d" />
	<path
   d="m 233.875,173.056 40.467,12.251 c 0.334,0.126 0.657,-0.035 0.75,-0.383 0.161,-0.414 0.311,-0.91 0.542,-1.324 l 0.023,-0.035 c 0.092,-0.254 0,-0.588 -0.323,-0.738 l -37.94,-18.918 -40.952,-12.4 c -0.276,-0.07 -0.565,0.045 -0.681,0.334 l -0.553,1.326 c -0.116,0.322 0,0.623 0.3,0.763 z"
   id="path50"
   inkscape:connector-curvature="0"
   style="fill:#ffd51d" />
	<path
   d="m 242.089,154.519 38.056,18.444 c 0.322,0.162 0.646,0.046 0.772,-0.219 0.231,-0.427 0.507,-0.889 0.761,-1.246 l 0.023,-0.035 c 0.138,-0.288 0.091,-0.61 -0.163,-0.783 l -34.514,-24.652 -38.518,-18.63 c -0.254,-0.149 -0.576,-0.022 -0.727,0.208 l -0.761,1.28 c -0.127,0.254 -0.093,0.601 0.184,0.761 z"
   id="path52"
   inkscape:connector-curvature="0"
   style="fill:#ffd51d" />
	<path
   d="m 469.613,277.672 -38.469,-18.617 c -0.299,-0.164 -0.611,-0.047 -0.75,0.217 l -0.748,1.27 c -0.152,0.244 -0.104,0.564 0.172,0.717 l 34.871,24.904 38.088,18.445 c 0.293,0.152 0.613,0.07 0.777,-0.242 0.207,-0.404 0.484,-0.84 0.736,-1.256 0.023,0 0.023,-0.012 0.023,-0.012 0.139,-0.256 0.104,-0.59 -0.172,-0.785 z"
   id="path54"
   inkscape:connector-curvature="0"
   style="fill:#ffd51d" />
	<path
   d="m 253.105,137.525 34.733,24.156 c 0.254,0.196 0.611,0.148 0.808,-0.104 0.289,-0.369 0.6,-0.797 0.936,-1.133 h 0.011 c 0.208,-0.275 0.15,-0.562 -0.047,-0.829 L 259.3,129.923 224.209,105.491 c -0.243,-0.186 -0.577,-0.139 -0.773,0.114 l -0.946,1.097 c -0.173,0.207 -0.161,0.588 0.058,0.772 z"
   id="path56"
   inkscape:connector-curvature="0"
   style="fill:#ffd51d" />
	<path
   d="m 458.576,294.754 -35.113,-24.396 c -0.232,-0.195 -0.555,-0.174 -0.75,0.092 l -0.936,1.098 c -0.195,0.242 -0.184,0.555 0.023,0.795 l 30.559,30.016 34.732,24.168 c 0.289,0.207 0.635,0.148 0.818,-0.115 0.289,-0.369 0.623,-0.775 0.922,-1.109 l 0.014,-0.033 c 0.197,-0.219 0.184,-0.553 -0.045,-0.76 z"
   id="path58"
   inkscape:connector-curvature="0"
   style="fill:#ffd51d" />
	<path
   d="m 297.182,151.738 c 0.196,0.254 0.565,0.254 0.785,0.057 0.358,-0.357 0.727,-0.726 1.12,-1.003 v -0.011 c 0.208,-0.174 0.254,-0.555 0.091,-0.773 l -25.239,-34.111 -30.823,-29.6 c -0.241,-0.22 -0.553,-0.22 -0.796,-0.059 l -1.085,0.946 c -0.218,0.23 -0.265,0.542 -0.08,0.808 l 25.505,34.434 z"
   id="path60"
   inkscape:connector-curvature="0"
   style="fill:#ffd51d" />
	<path
   d="m 414.139,280.256 c -0.24,-0.209 -0.564,-0.209 -0.781,-0.012 l -1.098,0.957 c -0.207,0.207 -0.275,0.52 -0.09,0.785 l 25.494,34.457 30.521,29.301 c 0.23,0.217 0.576,0.217 0.797,0.01 0.355,-0.346 0.738,-0.689 1.107,-1.002 h 0.012 c 0.24,-0.197 0.275,-0.508 0.08,-0.762 l -25.195,-34.123 z"
   id="path62"
   inkscape:connector-curvature="0"
   style="fill:#ffd51d" />
	<path
   d="m 282.394,109.656 25.54,33.741 c 0.161,0.242 0.519,0.312 0.772,0.138 0.416,-0.275 0.842,-0.553 1.257,-0.795 0.289,-0.196 0.347,-0.508 0.23,-0.773 L 290.617,104.35 264.778,70.274 c -0.127,-0.266 -0.496,-0.312 -0.739,-0.139 l -1.199,0.75 c -0.266,0.15 -0.347,0.484 -0.243,0.773 z"
   id="path64"
   inkscape:connector-curvature="0"
   style="fill:#ffd51d" />
	<path
   d="m 403.354,288.629 c -0.184,-0.252 -0.541,-0.299 -0.748,-0.137 l -1.246,0.738 c -0.207,0.172 -0.334,0.496 -0.174,0.76 l 19.773,38.012 25.561,33.752 c 0.174,0.254 0.533,0.311 0.787,0.127 0.391,-0.277 0.816,-0.531 1.244,-0.807 l 0.035,-0.01 c 0.254,-0.152 0.324,-0.477 0.207,-0.752 l -19.607,-37.641 z"
   id="path66"
   inkscape:connector-curvature="0"
   style="fill:#ffd51d" />
	<path
   d="m 319.873,136.834 c 0.15,0.277 0.484,0.357 0.738,0.254 0.474,-0.242 0.946,-0.404 1.396,-0.6 0.277,-0.128 0.427,-0.416 0.334,-0.715 L 308.868,95.558 288.704,57.826 c -0.139,-0.242 -0.45,-0.357 -0.75,-0.208 l -1.326,0.542 c -0.3,0.127 -0.404,0.416 -0.3,0.717 l 13.566,40.604 z"
   id="path68"
   inkscape:connector-curvature="0"
   style="fill:#ffd51d" />
	<path
   d="m 391.404,295.182 c -0.104,-0.287 -0.473,-0.357 -0.717,-0.254 l -1.348,0.6 c -0.289,0.072 -0.414,0.418 -0.312,0.682 l 13.592,40.662 19.979,37.271 c 0.125,0.312 0.496,0.418 0.74,0.301 0.471,-0.195 0.92,-0.449 1.371,-0.59 0,-0.043 0.055,-0.043 0.055,-0.043 0.244,-0.082 0.406,-0.404 0.299,-0.705 l -13.471,-40.213 z"
   id="path70"
   inkscape:connector-curvature="0"
   style="fill:#ffd51d" />
	<path
   d="m 422.541,247.275 c 5.281,-11.387 7.588,-23.902 6.688,-36.291 -0.102,0.023 -0.229,0.023 -0.346,0.092 l -0.174,0.012 c -1.521,0.394 -3.045,0.898 -4.322,1.291 -3.004,0.936 -5.906,2.02 -8.412,2.932 l 0.082,0.357 c 0.139,0.75 0.266,1.547 0.379,2.354 1.236,9.193 1.18,18.146 -0.229,26.496 -0.232,1.57 -0.611,3.266 -1.086,5.213 2.123,-0.75 3.947,-1.336 5.756,-1.947 z"
   id="path72"
   inkscape:connector-curvature="0"
   style="fill:#ffd51d" />
	<path
   d="m 359.486,289.393 c -5.122,-0.646 -10.347,-2.146 -15.527,-4.559 -0.334,0.186 -0.657,0.291 -0.946,0.473 -0.495,0.186 -0.911,0.406 -1.35,0.635 -1.581,0.717 -2.906,1.35 -4.072,1.904 8.26,2.088 16.843,2.711 25.31,1.857 -1.141,-0.057 -2.307,-0.15 -3.415,-0.31"
   id="path74"
   inkscape:connector-curvature="0"
   style="fill:#ffd51d" />
	<path
   d="m 367.064,286.623 c 3.115,0 6.229,-0.311 9.285,-0.957 -0.611,-0.232 -1.279,-0.484 -1.994,-0.842 -2.826,-1.328 -5.668,-3.277 -8.93,-6.104 -0.762,-0.715 -1.58,-1.5 -2.525,-2.434 -2.652,1.145 -5.18,2.283 -7.579,3.344 l -1.43,0.66 c -1.8,0.818 -3.53,1.566 -5.168,2.354 3.726,1.613 7.533,2.766 11.292,3.377 2.241,0.407 4.649,0.602 7.049,0.602"
   id="path76"
   inkscape:connector-curvature="0"
   style="fill:#ffd51d" />
	<path
   d="m 382.211,283.52 c 0.842,0 1.625,-0.127 2.375,-0.379 2.943,-1.594 3.992,-5.229 4.371,-7.211 0.543,-2.803 0.635,-5.93 0.35,-9.574 -0.047,-0.383 -0.072,-0.764 -0.117,-1.143 -0.047,-0.104 -0.047,-0.23 -0.047,-0.357 -3.264,1.42 -6.967,2.977 -10.588,4.58 -1.051,0.449 -2.123,0.922 -3.172,1.348 l -1.293,0.578 c -1.514,0.635 -3.033,1.314 -4.557,2.008 l -1.613,0.656 c 0.334,0.404 0.717,0.785 1.025,1.145 2.572,2.871 4.857,4.867 7.197,6.342 1.512,0.912 2.852,1.467 4.189,1.756 0.624,0.182 1.29,0.251 1.88,0.251"
   id="path78"
   inkscape:connector-curvature="0"
   style="fill:#ffd51d" />
	<path
   d="m 403.539,267.162 c 2.102,-3.104 3.867,-6.621 5.273,-10.543 -1.768,0.738 -3.576,1.465 -5.436,2.26 -2.803,1.188 -5.916,2.459 -9.135,3.832 0.045,1.385 0.07,2.49 0.045,3.494 -0.08,2.941 -0.389,6.898 -1.568,10.705 -0.299,0.797 -0.588,1.5 -0.854,2.088 4.673,-3.264 8.71,-7.303 11.675,-11.836"
   id="path80"
   inkscape:connector-curvature="0"
   style="fill:#ffd51d" />
	<path
   d="m 420.025,252.166 c -1.406,0.566 -2.758,1.084 -4.164,1.672 -0.705,0.242 -1.455,0.555 -2.193,0.854 -1.834,5.41 -4.303,10.256 -7.322,14.434 -0.559,0.783 -1.191,1.604 -1.906,2.457 6.228,-5.538 11.455,-12.011 15.585,-19.417"
   id="path82"
   inkscape:connector-curvature="0"
   style="fill:#ffd51d" />
	<path
   d="m 393.932,257.889 c 2.504,-1.016 5.145,-2.113 7.797,-3.092 3.207,-1.281 6.021,-2.342 8.639,-3.346 0.66,-2.641 1.143,-5.18 1.455,-7.59 0.992,-7.707 0.646,-16.104 -0.936,-24.953 -0.137,-0.539 -0.252,-1.025 -0.357,-1.545 v -0.035 c -3.299,1.258 -6.598,2.539 -10.035,3.924 l -2.178,0.842 c -3.795,1.465 -7.697,3.033 -11.318,4.486 2.111,6.518 3.785,12.678 5.02,18.746 0.932,4.66 1.567,8.744 1.913,12.563"
   id="path84"
   inkscape:connector-curvature="0"
   style="fill:#ffd51d" />
	<path
   d="m 364.861,270.369 c 4.014,-1.799 8.051,-3.598 11.846,-5.227 3.439,-1.498 7.316,-3.125 11.836,-5.016 -0.77,-4.916 -1.924,-9.473 -2.918,-13.277 -1.811,-6.555 -3.609,-12.252 -5.502,-17.502 -5.018,2.055 -10.336,4.246 -16.289,6.727 l -1.936,0.854 c -5.02,2.17 -9.565,4.178 -13.856,6.068 2.907,5.582 5.975,11.051 9.136,16.207 2.688,4.348 5.191,8.006 7.683,11.166"
   id="path86"
   inkscape:connector-curvature="0"
   style="fill:#ffd51d" />
	<path
   d="m 351.434,276.531 0.588,-0.244 c 3.022,-1.451 5.399,-2.527 7.601,-3.541 -3.228,-3.703 -5.916,-7.268 -7.843,-9.98 -3.656,-5.084 -7.048,-10.6 -10.497,-16.795 -4.349,1.996 -8.074,3.729 -11.455,5.283 -4.014,1.812 -7.706,3.531 -11.269,5.25 l 0.01,0.059 c 0.139,0.148 0.254,0.322 0.38,0.52 0.266,0.414 0.565,0.795 0.843,1.188 5.341,7.268 11.258,13.266 17.579,17.811 1.996,1.488 4.176,2.883 6.484,4.164 2.758,-1.387 5.456,-2.666 7.579,-3.715"
   id="path88"
   inkscape:connector-curvature="0"
   style="fill:#ffd51d" />
	<path
   d="m 333.819,285.48 c 1.707,-0.957 3.484,-1.938 5.515,-2.963 -1.453,-0.844 -3.011,-1.777 -4.511,-2.781 -7.049,-4.707 -13.612,-10.752 -19.473,-17.984 -0.53,-0.646 -1.026,-1.305 -1.534,-1.961 l -0.519,-0.75 -0.208,0.162 c -2.1,1.025 -5.191,2.574 -8.122,4.256 -1.292,0.715 -2.619,1.488 -3.795,2.365 l -0.264,0.139 c 8.536,9.355 19.414,16.404 31.457,20.383 z"
   id="path90"
   inkscape:connector-curvature="0"
   style="fill:#ffd51d" />
	<path
   d="m 296.57,177.623 c 1.974,-5.605 4.685,-10.635 7.973,-14.88 -5.757,5.479 -10.533,11.812 -14.259,18.837 1.915,-1.28 3.945,-2.55 6.286,-3.957"
   id="path92"
   inkscape:connector-curvature="0"
   style="fill:#ffd51d" />
	<path
   d="m 307.275,164.772 c -2.111,2.919 -3.876,6.241 -5.341,9.806 1.442,-0.797 2.988,-1.615 4.776,-2.561 3.392,-1.766 6.632,-3.414 9.979,-5.019 v -0.808 c 0.149,-4.325 0.703,-7.74 1.649,-10.717 0.299,-0.76 0.588,-1.512 0.865,-2.11 -4.729,3.139 -8.859,7.082 -11.928,11.409"
   id="path94"
   inkscape:connector-curvature="0"
   style="fill:#ffd51d" />
	<path
   d="m 328.801,148.887 c -0.773,0 -1.569,0.117 -2.307,0.371 -2.18,1.188 -3.749,3.61 -4.487,7.222 -0.45,2.397 -0.599,5.03 -0.415,8.213 3.034,-1.407 6.206,-2.838 9.759,-4.396 3.691,-1.557 6.909,-2.917 9.828,-4.072 -2.123,-2.238 -4.176,-4.002 -6.252,-5.316 -1.5,-0.901 -3.773,-2.022 -6.126,-2.022"
   id="path96"
   inkscape:connector-curvature="0"
   style="fill:#ffd51d" />
	<path
   d="m 334.477,146.674 c 0.739,0.207 1.499,0.508 2.215,0.854 3.587,1.672 6.645,4.176 8.917,6.172 0.231,0.172 0.427,0.357 0.6,0.553 3.773,-1.477 7.268,-2.744 10.543,-3.888 1.905,-0.622 3.657,-1.257 5.331,-1.787 -3.622,-1.419 -7.233,-2.366 -10.81,-2.815 -5.365,-0.785 -11.109,-0.474 -16.796,0.911"
   id="path98"
   inkscape:connector-curvature="0"
   style="fill:#ffd51d" />
	<path
   d="m 374.922,144.921 c -7.396,-2.021 -15.079,-2.861 -22.831,-2.527 5.239,0.531 10.612,1.984 15.897,4.372 2.455,-0.727 4.741,-1.292 6.934,-1.845"
   id="path100"
   inkscape:connector-curvature="0"
   style="fill:#ffd51d" />
	<path
   d="m 381.912,147.193 -1.098,0.265 c -2.26,0.485 -4.717,1.13 -7.498,1.995 1.051,0.6 2.125,1.223 3.266,1.984 7.049,4.626 13.564,10.74 19.391,18.122 0.322,0.393 0.66,0.808 0.971,1.212 l 0.301,0.403 c 3.203,-1.004 6.16,-1.88 8.809,-2.571 1.801,-0.484 3.312,-0.82 4.709,-1.086 l 0.242,-0.023 h 0.105 c -7.893,-8.998 -18.008,-16.021 -29.198,-20.301"
   id="path102"
   inkscape:connector-curvature="0"
   style="fill:#ffd51d" />
	<path
   d="m 358.229,154.551 c -2.757,1.006 -5.711,2.17 -8.456,3.221 3.137,3.356 6.252,7.244 9.504,11.87 2.675,3.817 5.375,7.981 7.984,12.515 3.586,-1.465 7.543,-2.976 11.959,-4.683 4.385,-1.649 8.436,-3.068 12.381,-4.418 l -0.104,-0.163 c -5.273,-7.323 -11.109,-13.322 -17.43,-17.799 -1.984,-1.395 -4.098,-2.779 -6.301,-3.898 -3.055,1.002 -6.166,2.099 -9.537,3.355"
   id="path104"
   inkscape:connector-curvature="0"
   style="fill:#ffd51d" />
	<path
   d="m 335.029,163.826 -3.679,1.604 c -2.607,1.131 -5.571,2.424 -9.333,4.164 0.588,4.742 1.65,9.957 3.276,15.966 0.992,3.577 2.146,7.486 3.853,12.643 1.568,-0.691 3.138,-1.395 4.741,-2.063 l 0.588,-0.289 c 3.184,-1.361 6.552,-2.804 10.116,-4.314 5.227,-2.261 10.59,-4.465 15.884,-6.656 -1.984,-3.667 -4.141,-7.487 -6.678,-11.638 -2.134,-3.382 -5.399,-8.434 -9.413,-13.325 -3.413,1.405 -6.585,2.744 -9.355,3.908"
   id="path106"
   inkscape:connector-curvature="0"
   style="fill:#ffd51d" />
	<path
   d="m 316.885,172.018 c -2.653,1.256 -5.26,2.468 -8.156,3.922 -2.964,1.5 -5.86,2.976 -8.756,4.59 -0.669,2.459 -1.176,4.903 -1.499,7.258 -1.016,7.613 -0.716,15.85 0.98,24.488 3.357,-1.764 6.91,-3.553 10.89,-5.514 4.129,-1.914 8.086,-3.748 12.158,-5.571 -1.418,-4.787 -2.595,-9.379 -3.553,-14.12 -0.853,-4.557 -1.706,-9.551 -2.064,-15.053"
   id="path108"
   inkscape:connector-curvature="0"
   style="fill:#ffd51d" />
	<path
   d="m 287.181,188.201 c -4.441,10.879 -6.287,22.818 -5.237,34.432 1.072,-0.803 2.261,-1.648 3.518,-2.453 2.318,-1.479 4.938,-3.025 8.179,-4.824 l 0.588,-0.311 c -0.034,-0.348 -0.116,-0.715 -0.186,-1.062 l -0.021,-0.299 c -1.42,-9.323 -1.374,-18.237 0.091,-26.532 0.243,-1.338 0.486,-2.573 0.785,-3.807 -2.619,1.51 -4.81,2.86 -6.806,4.221 z"
   id="path110"
   inkscape:connector-curvature="0"
   style="fill:#ffd51d" />
	<path
   d="m 297.978,262.535 0.404,-0.391 c 1.373,-1.131 2.757,-2.043 4.014,-2.873 2.608,-1.648 5.237,-3.184 7.741,-4.58 -3.356,-4.936 -6.275,-10.148 -8.686,-15.537 -2.653,-6.068 -4.718,-12.309 -6.136,-18.629 -1.951,0.934 -4.672,2.352 -7.314,3.852 -1.107,0.611 -2.538,1.455 -3.795,2.318 -0.46,0.346 -0.935,0.691 -1.303,1.062 l -0.3,0.24 c 0.969,6.023 2.664,11.93 5.133,17.545 2.651,6.069 6.077,11.804 10.242,16.993"
   id="path112"
   inkscape:connector-curvature="0"
   style="fill:#ffd51d" />
	<path
   d="m 415.006,210.026 c 2.17,-0.692 5.02,-1.58 7.994,-2.364 1.672,-0.403 3.174,-0.773 4.707,-1.062 0.369,-0.08 0.668,-0.104 1.062,-0.185 -0.936,-6.725 -2.732,-13.289 -5.432,-19.541 -2.389,-5.49 -5.377,-10.613 -8.955,-15.342 l -0.633,0.08 c -0.707,0.08 -1.418,0.254 -2.031,0.404 -1.418,0.357 -2.896,0.819 -4.312,1.303 -2.1,0.658 -4.432,1.465 -6.945,2.377 3.471,5.203 6.508,10.844 8.998,16.703 2.375,5.701 4.232,11.628 5.547,17.627"
   id="path114"
   inkscape:connector-curvature="0"
   style="fill:#ffd51d" />
	<path
   d="m 409.273,211.919 c -1.42,-5.745 -3.383,-11.467 -5.707,-17.038 -2.426,-5.838 -5.402,-11.57 -8.842,-17.072 -4.232,1.613 -8.408,3.206 -13.344,5.168 -3.736,1.512 -7.395,2.953 -11.154,4.465 3.057,5.641 5.973,11.708 8.973,18.525 2.215,5.099 4.168,10.117 5.838,14.939 3.842,-1.561 7.58,-2.977 11.133,-4.361 4.568,-1.672 8.846,-3.219 13.103,-4.626"
   id="path116"
   inkscape:connector-curvature="0"
   style="fill:#ffd51d" />
	<path
   d="m 345.343,237.574 c 1.996,-0.842 4.026,-1.742 6.091,-2.643 4.038,-1.74 7.129,-3.043 10.093,-4.291 6.229,-2.664 11.502,-4.857 16.531,-6.934 -1.961,-5.215 -3.91,-10 -5.941,-14.672 -2.434,-5.745 -5.25,-11.721 -8.535,-18.26 l -0.303,-0.532 c -5.847,2.388 -11.245,4.614 -16.379,6.759 l -1.949,0.821 c -4.303,1.855 -8.848,3.874 -13.89,6.114 2.412,6.679 4.996,13.23 7.776,19.424 1.846,4.468 3.979,9.093 6.506,14.214"
   id="path118"
   inkscape:connector-curvature="0"
   style="fill:#ffd51d" />
	<path
   d="m 312.894,212.161 c -4.257,1.948 -8.351,3.864 -12.135,5.675 1.637,6.393 3.84,12.701 6.551,18.697 2.307,5.229 5.075,10.361 8.156,15.287 3.761,-1.973 7.647,-3.922 11.859,-5.941 3.275,-1.592 6.932,-3.266 11.143,-5.201 -2.272,-4.465 -4.5,-9.078 -6.715,-14.178 -2.917,-6.818 -5.363,-13.254 -7.451,-19.541 -4.706,2.087 -8.237,3.736 -11.408,5.202"
   id="path120"
   inkscape:connector-curvature="0"
   style="fill:#ffd51d" />
</g>
</svg>